<?xml version="1.0" encoding="utf-8"?>
<!-- Generator: Adobe Illustrator 22.0.1, SVG Export Plug-In . SVG Version: 6.00 Build 0)  -->
<svg version="1.1" id="Capa_1" xmlns="http://www.w3.org/2000/svg" xmlns:xlink="http://www.w3.org/1999/xlink" x="0px" y="0px"
	 viewBox="0 0 375 375" style="enable-background:new 0 0 375 375;" xml:space="preserve">
<style type="text/css">
	.st0{fill:#C7C7C7;}
</style>
<g>
	<g>
		<path class="st0" d="M369.5,316.5l-86-86c-7.3-7.3-19.2-7.3-26.5,0l-20.7-20.7c38.5-51.4,34.5-124.6-12.2-171.3
			c-51.3-51.3-134.4-51.3-185.6,0c-51.3,51.3-51.3,134.4,0,185.6c46.7,46.7,119.9,50.7,171.3,12.2l20.7,20.7
			c-7.3,7.3-7.3,19.2,0,26.5l86,86c7.3,7.3,19.2,7.3,26.5,0l26.5-26.5C376.8,335.7,376.8,323.8,369.5,316.5z M207,186.1l-20.7,20.7
			c-15.9,11.6-34.9,18.1-54.9,18.1c-25.2,0.1-48.7-9.6-66.4-27.4c-17.7-17.7-27.5-41.3-27.5-66.3S47.3,82.6,65,64.9
			s41.3-27.5,66.3-27.5s48.6,9.8,66.3,27.5s27.5,41.3,27.5,66.3C225.1,151.3,218.6,170.2,207,186.1z"/>
	</g>
</g>
</svg>
